<?xml version="1.0" encoding="UTF-8" standalone="no"?>
<!-- Created with Inkscape (http://www.inkscape.org/) -->
<svg xmlns:rdf="http://www.w3.org/1999/02/22-rdf-syntax-ns#" xmlns="http://www.w3.org/2000/svg" height="24.8mm" width="136mm" version="1.1" xmlns:cc="http://creativecommons.org/ns#" xmlns:dc="http://purl.org/dc/elements/1.1/" viewBox="0 0 136.00307 24.80028">
 <metadata>
  <rdf:RDF>
   <cc:Work rdf:about="">
    <dc:format>image/svg+xml</dc:format>
    <dc:type rdf:resource="http://purl.org/dc/dcmitype/StillImage"/>
    <dc:title/>
   </cc:Work>
  </rdf:RDF>
 </metadata>
 <g transform="translate(2.9911e-7 -272.2)">
  <g transform="translate(-11.786 149.46)">
   <text style="word-spacing:0px;letter-spacing:0px" xml:space="preserve" transform="scale(.99573 1.0043)" line-height="1.25" font-size="35.429px" y="146.31071" x="36.061764" font-family="Saarland" fill="#280b0b"><tspan y="146.31071" x="36.061764" stroke-width=".26572" fill="#280b0b">Poker</tspan></text>
   <text style="word-spacing:0px;letter-spacing:0px" xml:space="preserve" font-size="35.278px" line-height="1.25" y="146.94345" x="94.474365" font-family="Saarland" fill="#d40000"><tspan y="146.94345" x="94.474365" stroke-width=".26458" fill="#d40000">Woo!</tspan></text>
   <g transform="matrix(.44861 0 0 .43921 -9.8009 47.463)">
    <g transform="matrix(.24863 -.090493 .090493 .24863 46.59 182.27)">
     <path fill-opacity=".49804" d="m21 5h103c8.86 0 16 7.136 16 16v153c0 8.86-7.14 16-16 16h-103c-8.864 0-16-7.14-16-16v-153c0-8.864 7.136-16 16-16z"/>
     <path fill="#e7e7e7" d="m17 1h103c8.86 0 16 7.136 16 16v153c0 8.86-7.14 16-16 16h-103c-8.864 0-16-7.14-16-16v-153c0-8.864 7.136-16 16-16z"/>
     <path fill="#c7891f" d="m19 3h103c8.86 0 16 7.136 16 16v153c0 8.86-7.14 16-16 16h-103c-8.864 0-16-7.14-16-16v-153c0-8.864 7.136-16 16-16z"/>
     <path fill="#fff" d="m18 2h103c8.86 0 16 7.136 16 16v153c0 8.86-7.14 16-16 16h-103c-8.864 0-16-7.14-16-16v-153c0-8.864 7.136-16 16-16z"/>
     <g transform="matrix(.59314 0 0 .23894 -103.05 9.256)">
      <path stroke-linejoin="round" d="m260.18 149.6c-4.84 19.24-19.68 52-10.28 62.12 5.71 4.66 8.42-4.88 9.57-11.19h0.23l-3.79 31.84 8.78-0.1s-3.78-30.6-3.79-31.77h0.09c0.93 5.16 4.46 15.83 8.34 11.77 11.34-11.4-5.36-43.83-9.15-62.67z" fill-rule="evenodd" stroke-width=".75890"/>
     </g>
     <g transform="matrix(-.59314 0 0 -.23894 207.41 177.52)">
      <path stroke-linejoin="round" d="m260.18 149.6c-4.84 19.24-19.68 52-10.28 62.12 5.71 4.66 8.42-4.88 9.57-11.19h0.23l-3.79 31.84 8.78-0.1s-3.78-30.6-3.79-31.77h0.09c0.93 5.16 4.46 15.83 8.34 11.77 11.34-11.4-5.36-43.83-9.15-62.67z" fill-rule="evenodd" stroke-width=".75890"/>
     </g>
     <g transform="matrix(.59314 0 0 .23894 -67.053 9.256)">
      <path stroke-linejoin="round" d="m260.18 149.6c-4.84 19.24-19.68 52-10.28 62.12 5.71 4.66 8.42-4.88 9.57-11.19h0.23l-3.79 31.84 8.78-0.1s-3.78-30.6-3.79-31.77h0.09c0.93 5.16 4.46 15.83 8.34 11.77 11.34-11.4-5.36-43.83-9.15-62.67z" fill-rule="evenodd" stroke-width=".75890"/>
     </g>
     <g transform="matrix(-.59314 0 0 -.23894 242.41 177.52)">
      <path stroke-linejoin="round" d="m260.18 149.6c-4.84 19.24-19.68 52-10.28 62.12 5.71 4.66 8.42-4.88 9.57-11.19h0.23l-3.79 31.84 8.78-0.1s-3.78-30.6-3.79-31.77h0.09c0.93 5.16 4.46 15.83 8.34 11.77 11.34-11.4-5.36-43.83-9.15-62.67z" fill-rule="evenodd" stroke-width=".75890"/>
     </g>
     <path fill-rule="evenodd" d="m20.645 48.665c-4.925 7.825-20.035 21.149-10.463 25.263 5.811 1.894 8.576-1.983 9.747-4.549h0.235l-3.859 12.946 8.937-0.038s-3.85-12.445-3.859-12.921h0.094c0.946 2.097 4.536 6.439 8.484 4.785 11.546-4.635-5.455-17.824-9.316-25.486z"/>
     <path d="m11.275 11.998h18.69v4.36l-9.669 25.64h-6.23l9.154-24.313h-11.945v-5.687"/>
     <path fill-rule="evenodd" d="m118.13 140c4.92-7.82 20.03-21.15 10.46-25.26-5.81-1.9-8.58 1.98-9.75 4.55h-0.23l3.86-12.95-8.94 0.04s3.85 12.44 3.86 12.92h-0.1c-0.94-2.1-4.53-6.44-8.48-4.79-11.547 4.64 5.45 17.83 9.32 25.49z"/>
     <path d="m127.5 177h-18.69v-4.36l9.66-25.64h6.23l-9.15 24.31h11.95v5.69"/>
     <g transform="matrix(.59314 0 0 .23894 -84.412 24.256)">
      <path stroke-linejoin="round" d="m260.18 149.6c-4.84 19.24-19.68 52-10.28 62.12 5.71 4.66 8.42-4.88 9.57-11.19h0.23l-3.79 31.84 8.78-0.1s-3.78-30.6-3.79-31.77h0.09c0.93 5.16 4.46 15.83 8.34 11.77 11.34-11.4-5.36-43.83-9.15-62.67z" fill-rule="evenodd" stroke-width=".75890"/>
     </g>
     <g transform="matrix(-.59314 0 0 -.23894 224.41 162.52)">
      <path stroke-linejoin="round" d="m260.18 149.6c-4.84 19.24-19.68 52-10.28 62.12 5.71 4.66 8.42-4.88 9.57-11.19h0.23l-3.79 31.84 8.78-0.1s-3.78-30.6-3.79-31.77h0.09c0.93 5.16 4.46 15.83 8.34 11.77 11.34-11.4-5.36-43.83-9.15-62.67z" fill-rule="evenodd" stroke-width=".75890"/>
     </g>
     <g transform="matrix(.59314 0 0 .23894 -84.053 47.256)">
      <path stroke-linejoin="round" d="m260.18 149.6c-4.84 19.24-19.68 52-10.28 62.12 5.71 4.66 8.42-4.88 9.57-11.19h0.23l-3.79 31.84 8.78-0.1s-3.78-30.6-3.79-31.77h0.09c0.93 5.16 4.46 15.83 8.34 11.77 11.34-11.4-5.36-43.83-9.15-62.67z" fill-rule="evenodd" stroke-width=".75890"/>
     </g>
    </g>
    <g transform="matrix(.26281 -.030567 .030567 .26281 57.802 178.42)">
     <path fill-opacity=".49804" d="m21 5h103c8.86 0 16 7.136 16 16v153c0 8.86-7.14 16-16 16h-103c-8.864 0-16-7.14-16-16v-153c0-8.864 7.136-16 16-16z"/>
     <path fill="#e7e7e7" d="m17 1h103c8.86 0 16 7.136 16 16v153c0 8.86-7.14 16-16 16h-103c-8.864 0-16-7.14-16-16v-153c0-8.864 7.136-16 16-16z"/>
     <path fill="#c7891f" d="m19 3h103c8.86 0 16 7.136 16 16v153c0 8.86-7.14 16-16 16h-103c-8.864 0-16-7.14-16-16v-153c0-8.864 7.136-16 16-16z"/>
     <path fill="#fff" d="m18 2h103c8.86 0 16 7.136 16 16v153c0 8.86-7.14 16-16 16h-103c-8.864 0-16-7.14-16-16v-153c0-8.864 7.136-16 16-16z"/>
     <g fill="#f00">
      <path d="m18.8 36.311h10.915v5.687h-18.025v-5.687l9.054-9.665c0.809-0.884 1.407-1.748 1.794-2.592 0.388-0.844 0.582-1.721 0.582-2.632 0-1.407-0.393-2.538-1.18-3.396-0.775-0.857-1.811-1.286-3.106-1.286-0.997 0-2.088 0.261-3.273 0.784-1.185 0.509-2.453 1.272-3.805 2.291v-6.591c1.44-0.576 2.863-1.012 4.27-1.306 1.407-0.308 2.785-0.462 4.137-0.462 2.968 0 5.272 0.79 6.911 2.371 1.65 1.58 2.475 3.784 2.475 6.61 0 1.635-0.349 3.162-1.047 4.582-0.697 1.406-2.165 3.295-4.402 5.666l-5.3 5.626"/>
      <g transform="matrix(.28639 0 0 .38877 -29.608 -9.4724)">
       <path fill-rule="evenodd" transform="matrix(1.1054,0,0,1.0796,-12.014,-18.867)" d="m147.21 156.42c-2.54 0.01-5.33 0.48-8.41 1.53-33.62 19.53 11.7 51.04 30.84 78.09l0.56 0.14c21.03-29.57 61.07-62.11 30.47-78.23-24.23-8.25-30.71 19.2-30.93 20.19-0.2-0.87-5.15-21.81-22.53-21.72z"/>
      </g>
      <path d="m120.07 152.69h-10.92v-5.69h18.03v5.69l-9.06 9.66c-0.81 0.89-1.41 1.75-1.79 2.6-0.39 0.84-0.58 1.72-0.58 2.63 0 1.4 0.39 2.54 1.18 3.39 0.77 0.86 1.81 1.29 3.1 1.29 1 0 2.09-0.26 3.27-0.78 1.19-0.51 2.46-1.28 3.81-2.29v6.59c-1.44 0.57-2.86 1.01-4.27 1.3-1.41 0.31-2.79 0.46-4.14 0.46-2.97 0-5.27-0.79-6.91-2.37-1.65-1.58-2.47-3.78-2.47-6.61 0-1.63 0.35-3.16 1.04-4.58 0.7-1.41 2.17-3.29 4.41-5.67l5.3-5.62"/>
      <g transform="matrix(-.28639 0 0 -.38877 168.47 198.31)">
       <path fill-rule="evenodd" transform="matrix(1.1054,0,0,1.0796,-12.014,-18.867)" d="m147.21 156.42c-2.54 0.01-5.33 0.48-8.41 1.53-33.62 19.53 11.7 51.04 30.84 78.09l0.56 0.14c21.03-29.57 61.07-62.11 30.47-78.23-24.23-8.25-30.71 19.2-30.93 20.19-0.2-0.87-5.15-21.81-22.53-21.72z"/>
      </g>
     </g>
     <g transform="translate(333.5,184.5)">
      <g fill="#f00" transform="matrix(.16636 0 0 .22966 -293.81 -168.73)">
       <path fill-rule="evenodd" transform="matrix(1.1054,0,0,1.0796,-12.014,-18.867)" d="m147.21 156.42c-2.54 0.01-5.33 0.48-8.41 1.53-33.62 19.53 11.7 51.04 30.84 78.09l0.56 0.14c21.03-29.57 61.07-62.11 30.47-78.23-24.23-8.25-30.71 19.2-30.93 20.19-0.2-0.87-5.15-21.81-22.53-21.72z"/>
      </g>
     </g>
     <g fill="#f00" transform="matrix(-.16636 0 0 -.22966 98.306 170.45)">
      <path fill-rule="evenodd" transform="matrix(1.1054,0,0,1.0796,-12.014,-18.867)" d="m147.21 156.42c-2.54 0.01-5.33 0.48-8.41 1.53-33.62 19.53 11.7 51.04 30.84 78.09l0.56 0.14c21.03-29.57 61.07-62.11 30.47-78.23-24.23-8.25-30.71 19.2-30.93 20.19-0.2-0.87-5.15-21.81-22.53-21.72z"/>
     </g>
    </g>
   </g>
  </g>
 </g>
</svg>
