<?xml version="1.0" encoding="UTF-8" standalone="no"?>
<svg
   id="svg277"
   version="1.1"
   viewBox="0 0 23.248339 24.799885"
   height="36px"
   width="36px">
  <defs
     id="defs271" />
  <g
     transform="translate(-95.721069,-165.91553)"
     id="layer1">
    <g
       id="g119"
       transform="matrix(0.44859988,0,0,0.43920008,74.134978,90.636021)">
      <g
         id="g83"
         transform="matrix(0.24863,-0.090493,0.090493,0.24863,46.59,182.27)">
        <path
           style="fill-opacity:0.49803999"
           id="path39"
           d="m 21,5 h 103 c 8.86,0 16,7.136 16,16 v 153 c 0,8.86 -7.14,16 -16,16 H 21 C 12.136,190 5,182.86 5,174 V 21 C 5,12.136 12.136,5 21,5 Z" />
        <path
           style="fill:#e7e7e7"
           id="path41"
           d="m 17,1 h 103 c 8.86,0 16,7.136 16,16 v 153 c 0,8.86 -7.14,16 -16,16 H 17 C 8.136,186 1,178.86 1,170 V 17 C 1,8.136 8.136,1 17,1 Z" />
        <path
           style="fill:#c7891f"
           id="path43"
           d="m 19,3 h 103 c 8.86,0 16,7.136 16,16 v 153 c 0,8.86 -7.14,16 -16,16 H 19 C 10.136,188 3,180.86 3,172 V 19 C 3,10.136 10.136,3 19,3 Z" />
        <path
           style="fill:#ffffff"
           id="path45"
           d="m 18,2 h 103 c 8.86,0 16,7.136 16,16 v 153 c 0,8.86 -7.14,16 -16,16 H 18 C 9.136,187 2,179.86 2,171 V 18 C 2,9.136 9.136,2 18,2 Z" />
        <g
           id="g49"
           transform="matrix(0.59314,0,0,0.23894,-103.05,9.256)">
          <path
             style="fill-rule:evenodd;stroke-width:0.75889999;stroke-linejoin:round"
             id="path47"
             d="m 260.18,149.6 c -4.84,19.24 -19.68,52 -10.28,62.12 5.71,4.66 8.42,-4.88 9.57,-11.19 h 0.23 l -3.79,31.84 8.78,-0.1 c 0,0 -3.78,-30.6 -3.79,-31.77 h 0.09 c 0.93,5.16 4.46,15.83 8.34,11.77 11.34,-11.4 -5.36,-43.83 -9.15,-62.67 z" />
        </g>
        <g
           id="g53"
           transform="matrix(-0.59314,0,0,-0.23894,207.41,177.52)">
          <path
             style="fill-rule:evenodd;stroke-width:0.75889999;stroke-linejoin:round"
             id="path51"
             d="m 260.18,149.6 c -4.84,19.24 -19.68,52 -10.28,62.12 5.71,4.66 8.42,-4.88 9.57,-11.19 h 0.23 l -3.79,31.84 8.78,-0.1 c 0,0 -3.78,-30.6 -3.79,-31.77 h 0.09 c 0.93,5.16 4.46,15.83 8.34,11.77 11.34,-11.4 -5.36,-43.83 -9.15,-62.67 z" />
        </g>
        <g
           id="g57"
           transform="matrix(0.59314,0,0,0.23894,-67.053,9.256)">
          <path
             style="fill-rule:evenodd;stroke-width:0.75889999;stroke-linejoin:round"
             id="path55"
             d="m 260.18,149.6 c -4.84,19.24 -19.68,52 -10.28,62.12 5.71,4.66 8.42,-4.88 9.57,-11.19 h 0.23 l -3.79,31.84 8.78,-0.1 c 0,0 -3.78,-30.6 -3.79,-31.77 h 0.09 c 0.93,5.16 4.46,15.83 8.34,11.77 11.34,-11.4 -5.36,-43.83 -9.15,-62.67 z" />
        </g>
        <g
           id="g61"
           transform="matrix(-0.59314,0,0,-0.23894,242.41,177.52)">
          <path
             style="fill-rule:evenodd;stroke-width:0.75889999;stroke-linejoin:round"
             id="path59"
             d="m 260.18,149.6 c -4.84,19.24 -19.68,52 -10.28,62.12 5.71,4.66 8.42,-4.88 9.57,-11.19 h 0.23 l -3.79,31.84 8.78,-0.1 c 0,0 -3.78,-30.6 -3.79,-31.77 h 0.09 c 0.93,5.16 4.46,15.83 8.34,11.77 11.34,-11.4 -5.36,-43.83 -9.15,-62.67 z" />
        </g>
        <path
           style="fill-rule:evenodd"
           id="path63"
           d="M 20.645,48.665 C 15.72,56.49 0.61,69.814 10.182,73.928 c 5.811,1.894 8.576,-1.983 9.747,-4.549 h 0.235 l -3.859,12.946 8.937,-0.038 c 0,0 -3.85,-12.445 -3.859,-12.921 h 0.094 c 0.946,2.097 4.536,6.439 8.484,4.785 11.546,-4.635 -5.455,-17.824 -9.316,-25.486 z" />
        <path
           id="path65"
           d="m 11.275,11.998 h 18.69 v 4.36 l -9.669,25.64 h -6.23 L 23.22,17.685 H 11.275 v -5.687" />
        <path
           style="fill-rule:evenodd"
           id="path67"
           d="m 118.13,140 c 4.92,-7.82 20.03,-21.15 10.46,-25.26 -5.81,-1.9 -8.58,1.98 -9.75,4.55 h -0.23 l 3.86,-12.95 -8.94,0.04 c 0,0 3.85,12.44 3.86,12.92 h -0.1 c -0.94,-2.1 -4.53,-6.44 -8.48,-4.79 -11.547,4.64 5.45,17.83 9.32,25.49 z" />
        <path
           id="path69"
           d="m 127.5,177 h -18.69 v -4.36 L 118.47,147 h 6.23 l -9.15,24.31 H 127.5 V 177" />
        <g
           id="g73"
           transform="matrix(0.59314,0,0,0.23894,-84.412,24.256)">
          <path
             style="fill-rule:evenodd;stroke-width:0.75889999;stroke-linejoin:round"
             id="path71"
             d="m 260.18,149.6 c -4.84,19.24 -19.68,52 -10.28,62.12 5.71,4.66 8.42,-4.88 9.57,-11.19 h 0.23 l -3.79,31.84 8.78,-0.1 c 0,0 -3.78,-30.6 -3.79,-31.77 h 0.09 c 0.93,5.16 4.46,15.83 8.34,11.77 11.34,-11.4 -5.36,-43.83 -9.15,-62.67 z" />
        </g>
        <g
           id="g77"
           transform="matrix(-0.59314,0,0,-0.23894,224.41,162.52)">
          <path
             style="fill-rule:evenodd;stroke-width:0.75889999;stroke-linejoin:round"
             id="path75"
             d="m 260.18,149.6 c -4.84,19.24 -19.68,52 -10.28,62.12 5.71,4.66 8.42,-4.88 9.57,-11.19 h 0.23 l -3.79,31.84 8.78,-0.1 c 0,0 -3.78,-30.6 -3.79,-31.77 h 0.09 c 0.93,5.16 4.46,15.83 8.34,11.77 11.34,-11.4 -5.36,-43.83 -9.15,-62.67 z" />
        </g>
        <g
           id="g81"
           transform="matrix(0.59314,0,0,0.23894,-84.053,47.256)">
          <path
             style="fill-rule:evenodd;stroke-width:0.75889999;stroke-linejoin:round"
             id="path79"
             d="m 260.18,149.6 c -4.84,19.24 -19.68,52 -10.28,62.12 5.71,4.66 8.42,-4.88 9.57,-11.19 h 0.23 l -3.79,31.84 8.78,-0.1 c 0,0 -3.78,-30.6 -3.79,-31.77 h 0.09 c 0.93,5.16 4.46,15.83 8.34,11.77 11.34,-11.4 -5.36,-43.83 -9.15,-62.67 z" />
        </g>
      </g>
      <g
         id="g117"
         transform="matrix(0.26281,-0.030567,0.030567,0.26281,57.802,178.42)">
        <path
           style="fill-opacity:0.49803999"
           id="path85"
           d="m 21,5 h 103 c 8.86,0 16,7.136 16,16 v 153 c 0,8.86 -7.14,16 -16,16 H 21 C 12.136,190 5,182.86 5,174 V 21 C 5,12.136 12.136,5 21,5 Z" />
        <path
           style="fill:#e7e7e7"
           id="path87"
           d="m 17,1 h 103 c 8.86,0 16,7.136 16,16 v 153 c 0,8.86 -7.14,16 -16,16 H 17 C 8.136,186 1,178.86 1,170 V 17 C 1,8.136 8.136,1 17,1 Z" />
        <path
           style="fill:#c7891f"
           id="path89"
           d="m 19,3 h 103 c 8.86,0 16,7.136 16,16 v 153 c 0,8.86 -7.14,16 -16,16 H 19 C 10.136,188 3,180.86 3,172 V 19 C 3,10.136 10.136,3 19,3 Z" />
        <path
           style="fill:#ffffff"
           id="path91"
           d="m 18,2 h 103 c 8.86,0 16,7.136 16,16 v 153 c 0,8.86 -7.14,16 -16,16 H 18 C 9.136,187 2,179.86 2,171 V 18 C 2,9.136 9.136,2 18,2 Z" />
        <g
           style="fill:#ff0000"
           id="g105">
          <path
             id="path93"
             d="m 18.8,36.311 h 10.915 v 5.687 H 11.69 v -5.687 l 9.054,-9.665 c 0.809,-0.884 1.407,-1.748 1.794,-2.592 0.388,-0.844 0.582,-1.721 0.582,-2.632 0,-1.407 -0.393,-2.538 -1.18,-3.396 -0.775,-0.857 -1.811,-1.286 -3.106,-1.286 -0.997,0 -2.088,0.261 -3.273,0.784 -1.185,0.509 -2.453,1.272 -3.805,2.291 v -6.591 c 1.44,-0.576 2.863,-1.012 4.27,-1.306 1.407,-0.308 2.785,-0.462 4.137,-0.462 2.968,0 5.272,0.79 6.911,2.371 1.65,1.58 2.475,3.784 2.475,6.61 0,1.635 -0.349,3.162 -1.047,4.582 -0.697,1.406 -2.165,3.295 -4.402,5.666 l -5.3,5.626" />
          <g
             id="g97"
             transform="matrix(0.28639,0,0,0.38877,-29.608,-9.4724)">
            <path
               style="fill-rule:evenodd"
               id="path95"
               d="m 147.21,156.42 c -2.54,0.01 -5.33,0.48 -8.41,1.53 -33.62,19.53 11.7,51.04 30.84,78.09 l 0.56,0.14 c 21.03,-29.57 61.07,-62.11 30.47,-78.23 -24.23,-8.25 -30.71,19.2 -30.93,20.19 -0.2,-0.87 -5.15,-21.81 -22.53,-21.72 z"
               transform="matrix(1.1054,0,0,1.0796,-12.014,-18.867)" />
          </g>
          <path
             id="path99"
             d="M 120.07,152.69 H 109.15 V 147 h 18.03 v 5.69 l -9.06,9.66 c -0.81,0.89 -1.41,1.75 -1.79,2.6 -0.39,0.84 -0.58,1.72 -0.58,2.63 0,1.4 0.39,2.54 1.18,3.39 0.77,0.86 1.81,1.29 3.1,1.29 1,0 2.09,-0.26 3.27,-0.78 1.19,-0.51 2.46,-1.28 3.81,-2.29 v 6.59 c -1.44,0.57 -2.86,1.01 -4.27,1.3 -1.41,0.31 -2.79,0.46 -4.14,0.46 -2.97,0 -5.27,-0.79 -6.91,-2.37 -1.65,-1.58 -2.47,-3.78 -2.47,-6.61 0,-1.63 0.35,-3.16 1.04,-4.58 0.7,-1.41 2.17,-3.29 4.41,-5.67 l 5.3,-5.62" />
          <g
             id="g103"
             transform="matrix(-0.28639,0,0,-0.38877,168.47,198.31)">
            <path
               style="fill-rule:evenodd"
               id="path101"
               d="m 147.21,156.42 c -2.54,0.01 -5.33,0.48 -8.41,1.53 -33.62,19.53 11.7,51.04 30.84,78.09 l 0.56,0.14 c 21.03,-29.57 61.07,-62.11 30.47,-78.23 -24.23,-8.25 -30.71,19.2 -30.93,20.19 -0.2,-0.87 -5.15,-21.81 -22.53,-21.72 z"
               transform="matrix(1.1054,0,0,1.0796,-12.014,-18.867)" />
          </g>
        </g>
        <g
           id="g111"
           transform="translate(333.5,184.5)">
          <g
             style="fill:#ff0000"
             id="g109"
             transform="matrix(0.16636,0,0,0.22966,-293.81,-168.73)">
            <path
               style="fill-rule:evenodd"
               id="path107"
               d="m 147.21,156.42 c -2.54,0.01 -5.33,0.48 -8.41,1.53 -33.62,19.53 11.7,51.04 30.84,78.09 l 0.56,0.14 c 21.03,-29.57 61.07,-62.11 30.47,-78.23 -24.23,-8.25 -30.71,19.2 -30.93,20.19 -0.2,-0.87 -5.15,-21.81 -22.53,-21.72 z"
               transform="matrix(1.1054,0,0,1.0796,-12.014,-18.867)" />
          </g>
        </g>
        <g
           style="fill:#ff0000"
           id="g115"
           transform="matrix(-0.16636,0,0,-0.22966,98.306,170.45)">
          <path
             style="fill-rule:evenodd"
             id="path113"
             d="m 147.21,156.42 c -2.54,0.01 -5.33,0.48 -8.41,1.53 -33.62,19.53 11.7,51.04 30.84,78.09 l 0.56,0.14 c 21.03,-29.57 61.07,-62.11 30.47,-78.23 -24.23,-8.25 -30.71,19.2 -30.93,20.19 -0.2,-0.87 -5.15,-21.81 -22.53,-21.72 z"
             transform="matrix(1.1054,0,0,1.0796,-12.014,-18.867)" />
        </g>
      </g>
    </g>
  </g>
</svg>
